<?xml version="1.0" standalone="no"?>
<!DOCTYPE svg PUBLIC "-//W3C//DTD SVG 20010904//EN"
 "http://www.w3.org/TR/2001/REC-SVG-20010904/DTD/svg10.dtd">
<svg version="1.0" xmlns="http://www.w3.org/2000/svg"
 width="945.000000pt" height="945.000000pt" viewBox="0 0 945.000000 945.000000"
 preserveAspectRatio="xMidYMid meet">

<g transform="translate(0.000000,945.000000) scale(0.100000,-0.100000)"
fill="#000000" stroke="none">
<path d="M1576 8855 c-64 -38 -828 -808 -897 -904 -73 -101 -129 -219 -165
-349 -25 -88 -27 -112 -27 -267 0 -102 5 -181 11 -197 l12 -28 257 0 c256 1
258 1 298 25 l40 25 819 0 c794 0 820 1 850 20 80 49 106 181 51 260 -52 75 7
70 -894 70 -800 0 -811 0 -853 21 -24 11 -56 39 -72 61 -24 34 -29 51 -29 99
0 48 5 66 28 99 16 23 42 49 59 58 29 16 299 17 3876 22 l3845 5 38 29 c49 38
67 73 67 134 0 70 -23 117 -72 149 l-42 28 -3490 5 c-2629 4 -3496 8 -3511 17
-26 14 -69 62 -84 90 -14 28 -14 85 1 120 7 15 36 58 65 96 30 37 60 86 68
108 53 149 -113 284 -249 204z"/>
<path d="M4294 7450 c-161 -34 -273 -166 -293 -344 -24 -213 55 -389 207 -463
48 -22 74 -28 158 -31 118 -5 184 10 256 58 204 136 225 525 37 694 -28 25
-75 55 -107 67 -64 24 -192 33 -258 19z m189 -169 c24 -15 45 -41 64 -79 26
-52 28 -67 28 -167 0 -117 -9 -154 -52 -213 -33 -44 -72 -62 -136 -62 -72 0
-113 28 -152 104 -27 54 -29 66 -29 165 0 114 19 177 67 230 51 55 142 64 210
22z"/>
<path d="M8070 7449 c-116 -23 -229 -118 -270 -226 -49 -131 -43 -311 15 -423
31 -59 102 -126 168 -156 59 -27 69 -29 192 -28 113 0 139 3 195 25 l65 24 3
93 c1 50 0 92 -3 92 -4 0 -21 -11 -39 -25 -118 -90 -284 -96 -362 -13 -38 40
-51 63 -63 117 l-9 41 164 0 164 0 0 80 0 80 -161 0 -160 0 6 23 c50 164 244
208 408 91 26 -19 49 -34 52 -34 3 0 5 42 5 94 l0 94 -42 17 c-97 38 -233 53
-328 34z"/>
<path d="M3180 7030 l0 -410 100 0 100 0 0 185 0 185 145 0 145 0 0 -185 0
-185 100 0 100 0 0 410 0 410 -100 0 -100 0 0 -150 0 -150 -145 0 -145 0 0
150 0 150 -100 0 -100 0 0 -410z"/>
<path d="M4920 7030 l0 -410 183 0 c194 0 279 10 337 40 46 24 95 76 114 122
20 46 21 128 2 171 -17 41 -74 91 -121 107 l-37 12 35 24 c96 65 112 201 33
280 -53 53 -110 64 -343 64 l-203 0 0 -410z m319 261 c53 -11 71 -31 71 -83 0
-28 -7 -46 -25 -63 -21 -22 -33 -25 -95 -25 l-70 0 0 90 0 90 38 0 c20 -1 57
-5 81 -9z m95 -340 c20 -19 26 -34 26 -68 0 -25 -5 -53 -11 -65 -17 -31 -71
-48 -154 -48 l-75 0 0 106 0 106 94 -4 c84 -3 97 -6 120 -27z"/>
<path d="M5660 7370 l0 -70 60 0 60 0 0 -270 0 -270 -60 0 -60 0 0 -70 0 -70
220 0 220 0 0 70 0 70 -55 0 -55 0 0 270 0 270 55 0 55 0 0 70 0 70 -220 0
-220 0 0 -70z"/>
<path d="M6160 7365 l0 -75 125 0 125 0 0 -335 0 -335 100 0 100 0 0 335 0
335 120 0 120 0 0 75 0 75 -345 0 -345 0 0 -75z"/>
<path d="M6950 7030 l0 -410 100 0 100 0 0 185 0 185 145 0 145 0 0 -185 0
-185 100 0 100 0 0 410 0 410 -100 0 -100 0 0 -150 0 -150 -145 0 -145 0 0
150 0 150 -100 0 -100 0 0 -410z"/>
<path d="M3120 4755 l0 -85 33 0 c50 0 76 -25 117 -114 20 -45 45 -89 54 -99
17 -16 11 -28 -108 -222 -69 -113 -126 -207 -126 -210 0 -3 51 -5 114 -5 l114
0 99 168 c93 156 101 167 131 170 l32 3 0 -170 0 -171 100 0 100 0 0 171 0
170 32 -3 c31 -3 39 -13 132 -170 l99 -168 118 0 119 0 -64 103 c-34 56 -93
151 -130 210 -62 101 -65 109 -50 125 9 9 34 53 54 98 41 89 67 114 117 114
l33 0 0 85 0 85 -72 0 c-88 0 -148 -26 -183 -79 -13 -20 -40 -75 -60 -123 -39
-93 -78 -138 -121 -138 l-24 0 0 170 0 170 -100 0 -100 0 0 -170 c0 -186 0
-186 -58 -156 -31 16 -56 58 -101 167 -50 120 -106 159 -231 159 l-70 0 0 -85z"/>
<path d="M4360 4430 l0 -410 93 0 92 1 155 269 c85 148 158 269 163 270 4 0 7
-121 7 -270 l0 -270 95 0 95 0 0 410 0 410 -104 0 -104 0 -143 -242 -144 -243
-3 243 -2 242 -100 0 -100 0 0 -410z"/>
<path d="M5150 4765 l0 -75 125 0 125 0 0 -335 0 -335 100 0 100 0 0 335 0
335 245 0 245 0 0 -335 0 -335 100 0 100 0 0 335 0 335 125 0 125 0 0 75 0 75
-695 0 -695 0 0 -75z"/>
<path d="M6807 4829 c-53 -12 -87 -32 -124 -71 -108 -112 -72 -308 70 -381
l27 -14 -120 -167 c-66 -92 -120 -169 -120 -172 0 -2 53 -3 117 -2 l118 3 100
147 100 147 43 1 42 0 0 -150 0 -150 100 0 100 0 0 410 0 410 -207 -1 c-115
-1 -225 -5 -246 -10z m253 -244 l0 -115 -81 0 c-79 0 -82 1 -115 34 -29 29
-34 41 -34 79 0 84 44 111 188 116 l42 1 0 -115z"/>
<path d="M6230 2405 l0 -75 75 0 75 0 0 75 0 75 -75 0 -75 0 0 -75z"/>
<path d="M6500 2405 l0 -75 75 0 75 0 0 75 0 75 -75 0 -75 0 0 -75z"/>
<path d="M3100 2225 c0 -3 68 -141 150 -306 120 -239 149 -304 139 -315 -19
-23 -87 -36 -155 -29 l-64 7 0 -86 0 -86 108 0 c59 0 124 5 145 11 46 13 112
69 137 118 15 30 254 598 281 669 8 22 8 22 -95 22 l-104 0 -73 -190 c-40
-104 -76 -190 -79 -190 -3 0 -43 86 -90 190 l-85 189 -107 1 c-60 0 -108 -2
-108 -5z"/>
<path d="M3940 1820 l0 -410 100 0 100 0 0 170 0 170 28 0 c24 0 40 -20 140
-170 l112 -170 115 0 c63 0 115 3 115 6 0 3 -63 98 -139 211 l-140 205 21 22
c11 11 36 54 56 94 42 86 70 112 123 112 l39 0 0 85 0 85 -72 0 c-127 0 -173
-36 -247 -192 -47 -99 -82 -138 -122 -138 l-29 0 0 165 0 165 -100 0 -100 0 0
-410z"/>
<path d="M4730 1821 l0 -411 100 0 100 0 0 134 0 133 103 5 c83 4 114 10 159
30 110 51 168 141 168 262 0 110 -46 184 -143 227 -49 22 -66 24 -269 27
l-218 3 0 -410z m365 245 c43 -18 55 -42 55 -109 0 -91 -47 -127 -167 -127
l-53 0 0 125 0 125 65 0 c36 0 81 -6 100 -14z"/>
<path d="M5659 2203 c-6 -16 -69 -200 -139 -411 l-129 -383 101 3 100 3 26 83
25 82 132 0 133 0 26 -85 27 -85 99 0 c55 0 100 4 100 8 0 7 -176 533 -250
750 l-22 62 -109 0 -109 0 -11 -27z m156 -320 c20 -65 38 -126 41 -135 5 -16
-3 -18 -81 -18 -78 0 -86 2 -81 18 3 9 21 68 41 130 19 63 35 116 35 118 0 21
14 -14 45 -113z"/>
<path d="M6220 2160 l0 -70 60 0 60 0 0 -270 0 -270 -60 0 -60 0 0 -70 0 -70
220 0 220 0 0 70 0 70 -60 0 -60 0 0 270 0 270 60 0 60 0 0 70 0 70 -220 0
-220 0 0 -70z"/>
<path d="M6800 1820 l0 -410 100 0 100 0 0 185 0 185 145 0 145 0 0 -185 0
-185 100 0 100 0 0 410 0 410 -100 0 -100 0 0 -150 0 -150 -145 0 -145 0 0
150 0 150 -100 0 -100 0 0 -410z"/>
<path d="M7670 1820 l0 -410 94 0 94 0 158 272 159 273 3 -273 2 -272 100 0
100 0 0 410 0 411 -107 -3 -107 -3 -137 -229 c-76 -125 -142 -233 -148 -239
-8 -8 -11 57 -11 231 l0 242 -100 0 -100 0 0 -410z"/>
</g>
</svg>
