<?xml version="1.0" standalone="no"?>
<!DOCTYPE svg PUBLIC "-//W3C//DTD SVG 20010904//EN"
 "http://www.w3.org/TR/2001/REC-SVG-20010904/DTD/svg10.dtd">
<svg version="1.0" xmlns="http://www.w3.org/2000/svg"
 width="820.000000pt" height="1280.000000pt" viewBox="0 0 820.000000 1280.000000"
 preserveAspectRatio="xMidYMid meet">
<metadata>
Created by potrace 1.15, written by Peter Selinger 2001-2017
</metadata>
<g transform="translate(0.000000,1280.000000) scale(0.100000,-0.100000)"
fill="#e4d972" stroke="none">
<path d="M6494 12773 c-54 -58 -210 -411 -303 -689 -322 -959 -369 -1992 -118
-2607 81 -198 213 -357 350 -423 143 -68 249 -55 343 42 108 110 137 219 137
504 -1 308 -24 457 -93 606 -62 135 -120 212 -377 509 -124 142 -221 281 -239
343 -19 61 -18 265 1 420 35 279 77 446 203 798 110 307 144 416 146 473 1 54
-15 62 -50 24z"/>
<path d="M4397 12253 c-42 -67 -61 -699 -31 -983 27 -248 28 -465 5 -734 -27
-303 -27 -513 -1 -721 25 -204 25 -389 0 -675 -26 -288 -26 -508 0 -715 25
-204 25 -377 0 -657 -27 -288 -27 -503 -1 -730 26 -225 26 -398 0 -663 -27
-276 -27 -500 0 -723 26 -217 26 -356 1 -647 -25 -279 -26 -504 -4 -691 19
-158 14 -445 -10 -594 l-13 -85 -2 125 c-2 132 -16 314 -27 331 -10 17 -39
-17 -113 -130 -181 -278 -202 -347 -202 -671 0 -271 21 -398 80 -492 34 -53
81 -78 162 -85 l59 -6 0 105 c0 186 13 500 20 486 4 -7 12 -65 19 -128 26
-254 121 -776 186 -1026 142 -540 501 -1306 769 -1640 126 -157 315 -331 426
-392 65 -35 224 -76 295 -75 105 1 179 75 211 210 40 168 -23 446 -148 658
-163 276 -513 593 -759 686 -27 10 -89 25 -139 33 -106 18 -168 52 -244 137
-293 325 -448 924 -491 1889 l-5 125 48 -190 c100 -386 203 -667 370 -1000
100 -201 146 -281 268 -465 265 -402 503 -620 735 -675 96 -22 219 -20 279 6
68 29 89 74 96 205 19 326 -128 659 -429 970 -119 124 -212 191 -377 274 -127
64 -216 98 -290 112 -31 5 -71 22 -91 36 -110 82 -265 318 -386 587 -93 207
-133 338 -158 519 -38 277 -81 1065 -57 1041 5 -5 33 -98 62 -205 28 -107 65
-244 82 -305 183 -675 492 -1248 865 -1606 134 -128 230 -193 342 -233 76 -27
99 -30 201 -31 125 0 162 12 201 65 43 57 49 261 13 416 -54 235 -206 493
-414 704 -208 211 -356 299 -657 390 -39 12 -87 36 -107 52 -61 50 -225 305
-331 516 -179 356 -230 609 -255 1287 -6 160 -12 305 -15 323 -2 19 0 30 6 27
5 -4 9 -11 9 -17 0 -6 36 -134 80 -283 162 -551 302 -925 440 -1176 137 -247
381 -568 537 -706 184 -162 328 -221 518 -210 117 7 157 25 188 86 20 41 22
60 21 181 -1 157 -16 236 -74 383 -74 188 -203 379 -370 547 -182 181 -372
296 -595 360 -132 38 -162 55 -220 126 -61 76 -222 319 -289 439 -149 265
-223 706 -241 1440 l-5 220 25 -90 c14 -49 50 -180 81 -290 230 -826 467
-1300 854 -1708 160 -169 301 -262 445 -292 94 -20 287 -20 324 0 83 42 93
350 20 578 -63 195 -231 445 -407 608 -188 173 -398 294 -627 359 -48 13 -85
31 -113 56 -114 97 -332 415 -407 594 -49 117 -103 338 -134 545 -30 200 -47
454 -56 800 l-5 230 30 -110 c180 -646 253 -864 394 -1175 103 -224 238 -446
384 -630 113 -143 332 -356 435 -424 248 -164 440 -164 522 -1 29 58 30 64 29
195 -1 157 -26 270 -92 419 -98 221 -312 477 -563 671 -158 122 -332 209 -418
210 -89 0 -163 72 -323 310 -211 312 -308 594 -358 1028 -23 203 -43 595 -38
752 l3 115 22 -65 c12 -36 56 -193 98 -350 43 -157 100 -350 127 -430 292
-846 818 -1515 1250 -1590 122 -22 222 22 269 116 22 45 24 60 24 194 -1 126
-4 157 -27 240 -52 181 -108 293 -228 455 -89 119 -164 200 -285 307 -177 157
-370 274 -493 298 -138 27 -166 45 -271 173 -335 411 -462 856 -491 1722 -5
171 -12 337 -16 370 -5 61 -17 95 -27 78z"/>
<path d="M7230 12175 c-18 -21 -8 -98 35 -284 73 -315 92 -535 75 -842 -16
-295 -48 -514 -121 -819 -72 -301 -75 -320 -59 -330 8 -6 37 -10 63 -10 42 0
53 5 77 30 88 94 181 509 235 1049 20 204 19 292 -6 463 -33 234 -142 737
-161 749 -23 15 -124 10 -138 -6z"/>
<path d="M5277 12068 c-19 -20 -34 -79 -95 -388 -39 -201 -77 -417 -83 -480
-22 -220 1 -558 57 -835 25 -125 39 -153 84 -165 46 -12 130 -2 137 17 3 8 -6
94 -21 191 -77 509 -85 885 -26 1195 11 53 39 159 63 235 57 176 62 207 36
233 -29 29 -122 27 -152 -3z"/>
<path d="M8157 11203 c-11 -18 -27 -134 -42 -308 -28 -322 -61 -496 -128 -692
-55 -158 -91 -239 -272 -603 l-172 -345 -129 -21 c-253 -41 -474 -165 -710
-399 -130 -129 -221 -253 -289 -390 -81 -164 -96 -233 -96 -446 0 -97 4 -194
10 -215 22 -84 81 -116 210 -115 301 2 533 180 848 649 154 230 366 616 458
837 192 455 294 946 336 1604 16 266 4 490 -24 444z"/>
<path d="M8151 9773 c-18 -84 -21 -105 -36 -278 -40 -449 -120 -746 -294
-1093 -179 -357 -299 -512 -397 -512 -74 0 -230 -70 -383 -173 -284 -191 -557
-511 -671 -788 -82 -198 -96 -388 -41 -534 31 -83 49 -90 214 -90 121 0 152 4
212 23 188 62 355 215 571 522 451 641 719 1310 808 2020 53 414 73 950 36
950 -4 0 -13 -21 -19 -47z"/>
<path d="M1094 9755 c-11 -60 3 -673 21 -880 23 -275 49 -436 94 -593 116
-399 350 -952 472 -1117 139 -186 403 -411 543 -464 121 -45 254 -15 316 71
101 139 44 440 -132 695 -139 202 -428 392 -641 423 -81 12 -139 43 -218 117
-107 102 -167 209 -238 424 -87 266 -127 513 -156 974 -20 320 -42 447 -61
350z"/>
<path d="M1830 9262 l-23 -19 29 -57 c16 -31 78 -125 138 -209 158 -219 210
-303 296 -472 116 -227 203 -480 265 -767 34 -154 44 -172 93 -163 82 15 88
49 42 231 -140 549 -451 1257 -616 1403 -74 65 -179 90 -224 53z"/>
<path d="M515 8491 c-54 -11 -65 -71 -45 -231 30 -227 115 -434 337 -815 61
-104 128 -226 151 -270 55 -110 68 -121 128 -106 66 17 104 38 104 59 0 10
-44 81 -99 158 -54 76 -127 188 -161 249 -181 314 -320 691 -320 868 0 84 -22
104 -95 88z"/>
<path d="M8142 8398 c-6 -18 -13 -95 -16 -170 -15 -334 -77 -622 -207 -966
-109 -288 -319 -660 -401 -710 -18 -11 -82 -35 -143 -52 -232 -67 -461 -214
-665 -426 -276 -286 -402 -561 -404 -879 -1 -117 1 -134 22 -173 32 -61 65
-72 210 -73 121 0 241 18 307 45 307 129 877 991 1104 1673 81 241 176 762
227 1233 18 164 24 456 11 503 -10 37 -33 34 -45 -5z"/>
<path d="M3024 8385 c-4 -10 3 -81 15 -159 47 -305 77 -648 67 -755 -8 -92
-56 -183 -166 -316 -217 -263 -316 -448 -340 -637 -13 -106 -13 -416 0 -532
13 -109 34 -160 87 -208 103 -92 282 -65 372 58 142 192 271 673 288 1069 8
197 -24 498 -93 885 -56 312 -127 523 -198 589 -23 22 -26 23 -32 6z"/>
<path d="M5 7750 c-11 -17 7 -64 69 -185 87 -168 204 -353 246 -391 49 -45
274 -268 465 -462 168 -172 323 -307 465 -408 357 -253 781 -387 994 -314 112
38 158 93 158 188 0 183 -187 389 -505 557 -194 103 -322 130 -657 140 -243 8
-318 17 -385 50 -136 65 -482 396 -654 625 -131 174 -181 225 -196 200z"/>
<path d="M3456 7533 c12 -55 106 -616 119 -712 28 -214 14 -354 -49 -485 -19
-40 -98 -166 -175 -282 -255 -383 -315 -545 -314 -854 1 -229 43 -373 130
-450 105 -92 246 -71 359 53 188 205 320 768 293 1248 -27 484 -166 1187 -279
1408 -32 64 -94 118 -84 74z"/>
<path d="M8145 7023 c-4 -10 -13 -97 -21 -193 -22 -297 -83 -620 -164 -863
-67 -201 -260 -574 -381 -734 -46 -62 -83 -83 -199 -112 -458 -118 -985 -677
-1070 -1135 -16 -84 -8 -258 14 -332 27 -86 34 -89 215 -88 177 1 260 17 351
65 156 83 375 345 582 699 240 408 438 827 512 1081 128 444 250 1367 207
1572 -13 57 -32 74 -46 40z"/>
<path d="M373 6964 c20 -122 342 -639 601 -964 128 -161 398 -430 548 -545
326 -251 661 -405 1003 -461 171 -27 296 -2 348 70 18 25 22 45 22 102 0 61
-5 80 -37 145 -86 172 -281 340 -538 463 -150 72 -177 76 -515 86 -332 10
-354 13 -491 79 -214 102 -348 248 -662 714 -176 261 -243 347 -269 347 -12 0
-14 -8 -10 -36z"/>
<path d="M3993 6318 c3 -51 22 -187 41 -303 82 -490 70 -619 -76 -808 -218
-282 -329 -493 -405 -767 -14 -51 -18 -104 -18 -250 0 -164 3 -194 24 -267 28
-101 75 -181 121 -207 125 -73 315 46 424 267 240 486 257 1322 42 2063 -61
208 -124 364 -148 364 -8 0 -9 -27 -5 -92z"/>
<path d="M8156 5703 c-12 -42 -27 -149 -41 -303 -42 -450 -105 -706 -260
-1050 -92 -205 -250 -483 -307 -541 -37 -38 -49 -43 -195 -78 -358 -86 -811
-492 -967 -868 -42 -101 -76 -250 -83 -363 -14 -244 27 -313 196 -327 137 -11
291 30 416 112 164 107 393 387 597 730 439 739 605 1295 668 2243 11 169 13
404 4 440 -8 26 -21 29 -28 5z"/>
<path d="M1023 5648 c10 -102 130 -300 322 -533 126 -152 455 -483 604 -607
293 -245 577 -408 836 -480 104 -29 436 -38 501 -13 54 21 114 100 114 152 0
63 -140 292 -243 395 -183 185 -386 253 -897 298 -213 19 -360 39 -442 61 -72
19 -170 115 -570 559 -106 118 -202 216 -212 218 -17 4 -19 -1 -13 -50z"/>
<path d="M1360 4925 c0 -52 118 -309 210 -455 62 -99 110 -196 199 -400 195
-450 528 -943 899 -1331 391 -409 873 -709 1222 -760 175 -25 371 6 420 68 52
67 -2 306 -96 420 -76 93 -261 221 -409 282 -165 69 -341 102 -665 126 -338
25 -366 32 -495 136 -178 144 -356 342 -505 563 -109 164 -321 536 -304 536
10 0 135 -115 444 -410 299 -286 432 -401 573 -498 159 -110 297 -171 477
-210 215 -48 285 -47 410 4 95 39 115 61 112 126 -10 237 -207 465 -548 637
-205 102 -328 126 -600 117 -279 -10 -343 9 -546 161 -208 156 -358 322 -558
613 -62 91 -128 185 -148 210 -57 74 -92 98 -92 65z"/>
<path d="M8141 4293 c-6 -21 -15 -130 -21 -242 -11 -229 -28 -352 -70 -521
-70 -276 -154 -474 -377 -887 -128 -236 -139 -253 -167 -258 -17 -2 -79 -11
-138 -19 -263 -37 -434 -161 -741 -541 -229 -284 -310 -467 -324 -732 -7 -149
5 -192 73 -252 76 -67 160 -75 319 -29 280 80 554 374 888 953 323 561 491
1076 567 1735 30 268 50 746 34 808 -10 34 -32 26 -43 -15z"/>
<path d="M8157 2934 c-13 -44 -27 -151 -42 -319 -43 -489 -102 -689 -346
-1171 -216 -429 -231 -448 -353 -464 -127 -16 -305 -94 -496 -218 -118 -76
-177 -128 -271 -240 -151 -180 -279 -390 -279 -456 0 -61 4 -61 549 -61 l483
0 130 285 c379 835 505 1148 547 1357 27 135 67 422 87 633 21 209 25 642 7
660 -8 9 -12 7 -16 -6z"/>
<path d="M2480 2638 c0 -153 460 -722 881 -1088 185 -162 464 -346 694 -460
171 -85 204 -92 440 -97 179 -4 204 -2 235 14 107 56 108 202 2 362 -81 122
-233 258 -395 353 -170 99 -259 120 -602 138 -513 27 -539 40 -920 475 -185
210 -266 296 -304 318 l-31 18 0 -33z"/>
<path d="M2780 1997 c0 -37 39 -136 103 -261 182 -357 512 -781 832 -1068 139
-126 246 -207 514 -393 118 -82 241 -170 274 -197 33 -26 76 -53 96 -59 22 -7
165 -13 359 -16 l322 -5 0 99 c0 176 -41 273 -165 392 -124 117 -433 311 -570
356 -75 25 -98 27 -345 35 -274 9 -386 21 -455 50 -63 27 -192 130 -290 231
-155 161 -255 288 -455 579 -100 146 -197 270 -211 270 -5 0 -9 -6 -9 -13z"/>
</g>
</svg>
